<?xml version="1.0" standalone="no"?>
<!DOCTYPE svg PUBLIC "-//W3C//DTD SVG 20010904//EN"
 "http://www.w3.org/TR/2001/REC-SVG-20010904/DTD/svg10.dtd">
<svg version="1.0" xmlns="http://www.w3.org/2000/svg"
 width="512.000000pt" height="512.000000pt" viewBox="0 0 512.000000 512.000000"
 preserveAspectRatio="xMidYMid meet">

<g transform="translate(0.000000,512.000000) scale(0.100000,-0.100000)"
fill="#000000" stroke="none">
<path d="M0 2560 l0 -2250 1660 0 1660 0 0 755 0 755 -103 -6 c-373 -23 -705
231 -781 598 -51 245 27 499 206 675 161 160 352 233 575 220 l103 -6 0 755 0
754 -1660 0 -1660 0 0 -2250z m1810 0 l0 -1050 -600 0 -600 0 0 1050 0 1050
600 0 600 0 0 -1050z"/>
<path d="M910 2560 l0 -750 300 0 300 0 0 750 0 750 -300 0 -300 0 0 -750z"/>
<path d="M3620 3807 l0 -643 66 -64 c312 -305 312 -775 0 -1080 l-66 -64 0
-643 c0 -519 2 -643 13 -643 28 0 188 51 283 91 658 273 1122 897 1194 1608
84 839 -394 1646 -1176 1982 -108 46 -268 99 -300 99 -12 0 -14 -101 -14 -643z
m666 -489 c101 -150 170 -317 211 -508 25 -118 25 -382 0 -500 -54 -252 -166
-479 -316 -641 l-56 -60 -104 104 -103 105 55 65 c103 121 178 271 220 437 30
122 30 358 0 480 -42 165 -117 316 -219 436 -30 35 -54 66 -54 70 0 4 46 52
102 108 l101 100 57 -62 c31 -34 79 -94 106 -134z"/>
<path d="M3065 2996 c-84 -21 -147 -57 -211 -121 -177 -176 -177 -453 1 -630
258 -259 695 -118 757 244 24 141 -22 281 -127 387 -112 113 -269 158 -420
120z m175 -306 c45 -23 80 -80 80 -130 0 -76 -74 -150 -151 -150 -46 0 -108
39 -130 82 -37 72 -14 151 57 194 48 29 92 30 144 4z"/>
</g>
</svg>
